<svg width="140" height="140" viewBox="0 0 140 140" fill="none" xmlns="http://www.w3.org/2000/svg">
<path d="M102.166 0H37.8344C16.9354 0 0 16.9354 0 37.8344V102.166C0 123.065 16.9354 140 37.8344 140H102.166C123.065 140 140 123.065 140 102.166V37.8344C140 16.9354 123.056 0 102.166 0Z" fill="#F29CBC"/>
<path d="M127.548 45.0075C99.9365 45.0075 77.5627 67.3897 77.5627 94.9925C105.174 94.9925 127.548 72.6103 127.548 45.0075Z" fill="white"/>
<path d="M88.9507 63.2334C88.9088 63.9289 88.8921 64.6328 88.8921 65.3451C88.8921 76.5823 93.8194 85.6826 99.8947 85.6826C105.97 85.6826 110.897 76.5739 110.897 65.3451C110.897 58.9513 109.297 53.2447 106.808 49.5158C99.8528 52.6917 93.7523 57.4011 88.9507 63.2334Z" fill="#126E6E"/>
<path d="M10.8015 45.0075C38.4126 45.0075 60.7865 67.3897 60.7865 94.9925C33.1837 94.9925 10.8015 72.6103 10.8015 45.0075Z" fill="white"/>
<path d="M49.4068 63.2334C49.4487 63.9289 49.4655 64.6328 49.4655 65.3451C49.4655 76.5823 44.5382 85.6826 38.4629 85.6826C32.3876 85.6826 27.4603 76.5739 27.4603 65.3451C27.4603 58.9513 29.0609 53.2447 31.5496 49.5158C38.5048 52.6917 44.6052 57.4011 49.4068 63.2334Z" fill="#126E6E"/>
</svg>
