<svg id="Layer_1" data-name="Layer 1" xmlns="http://www.w3.org/2000/svg" viewBox="0 0 220.71523 220.71523"><title>jgn</title><circle cx="110.35761" cy="110.35761" r="105.57693" fill="#fff"/><path d="M110.35761,12A98.3576,98.3576,0,1,1,12,110.3576,98.35758,98.35758,0,0,1,110.35761,12m0-12a110.3576,110.3576,0,1,0,110.3576,110.3576A110.35759,110.35759,0,0,0,110.35761,0h0Z"/><path d="M108.1,26.1l-1.3,9-3.5-4c-4-4.8-5.7-5.2-4.9-1.4,0.9,4.5-.4,5.6-4.5,3.9-4.2-1.8-15.9-3.2-15.9-2,0,0.5,1.4,1.7,3,2.6,1.7,0.9,3,2.4,3,3.3s-0.4,1.4-.9,1.1c-1.5-1-13.6,1.5-18.6,3.8-9.2,4.4-12.8,9-15,19.5-1.8,8.5-3.9,12.4-9.5,17.5L36,83h3.2a23.1087,23.1087,0,0,0,7.7-2c2.4-1.1,4.4-2,4.5-2s-2,4.4-4.7,9.7a73.56622,73.56622,0,0,0-6,16.5c-1,6.1-.9,7.5,1,13.5,1.1,3.8,2.7,8.2,3.4,10,1.1,2.8,1.1,3.7-.4,6.8-2.1,4.3-.9,4.5,3.8.4,3.3-2.9,3.5-3,3.5-1,0,3.3,2.6,8.9,8.1,17.3a98.96937,98.96937,0,0,1,7.4,13.3l2.2,5.6,1.1-2.8a28.85915,28.85915,0,0,0,1.4-5.8c0.3-2.9.5-2.7,4.2,3.5a71.08246,71.08246,0,0,1,5.7,12c1.8,5.8,1.9,5.8,4.1-1,0.4-1.2,7.2,9.6,9.2,14.5,0.2,0.5,1,.1,1.8-0.9,1.4-1.8,1.8-1.4,6.6,5.9,2.8,4.3,5.4,8.3,5.7,8.9,0.3,0.8.7,0.7,1.1-.1,0.3-.7,2.8-4.8,5.6-9,4.7-7.1,5.1-7.6,6.4-5.8,1.7,2.2,1.4,2.4,5.2-5a74.24715,74.24715,0,0,1,4.5-7.9c1.3-1.8,1.4-1.7,2,1.3,0.8,4,2.3,4,3.1-.2,0.3-1.8,2.4-6.3,4.6-10.1,2.2-3.7,4-7.2,4-7.7a0.98655,0.98655,0,0,1,1-.9c0.6,0,1,1.3,1,2.9a19.81284,19.81284,0,0,0,1.1,5.8l1.1,2.8,1.6-4.5c0.8-2.5,4.1-8.6,7.3-13.6a97.1297,97.1297,0,0,0,7.7-14.7l1.8-5.4,3.2,2.8c3.8,3.4,5.9,3.8,3.8.7-2.2-3.1-2-5.4.8-12.4,5-12.5,4.3-20.5-3.3-35.7-2.6-5.3-4.7-9.7-4.6-9.7,0.2,0,2.2.9,4.6,2a22.39326,22.39326,0,0,0,7.3,2h2.8l-5.1-5.6c-3.8-4.1-5.5-7-6.6-11.2-0.9-3.1-2-7.4-2.6-9.5-1.4-5.2-7.8-12-13.7-14.5-5.1-2.2-16.9-4.5-18.3-3.6-0.5.3-.9-0.1-0.9-0.8s1.4-2.6,3.2-4.1l3.3-2.8-6.5.6a45.6706,45.6706,0,0,0-9.8,2.1c-4.4,1.8-5.6,1-4.9-3.2,0.7-4.4-.4-4.3-4.6.6l-3.5,4.1-1.1-6.4a77.91712,77.91712,0,0,1-1.1-9C111,13.8,109.3,17.5,108.1,26.1Zm3.4,14.6,0.7,4.8,2.9-5.5,2.8-5.5,0.1,4.7c0,2.7.2,4.8,0.4,4.8a17.81165,17.81165,0,0,0,3.6-3.1c1.7-1.7,3.2-3,3.4-2.8s-0.5,4.1-1.7,8.6c-1.9,7.8-2.2,8.2-5.1,8.9-4.5,1-17.2.7-19.3-.4-1.1-.7-2.2-3.2-2.8-6.9-0.6-3.2-1.5-6.9-1.9-8.3-0.8-2.4-.7-2.3,2.6.8l3.5,3.3,0.9-4.3,0.9-4.3,2.5,5c2.3,4.7,2.5,4.8,3.1,2.5a30.794,30.794,0,0,0,.8-5.3C109.1,33.4,110.7,35.4,111.5,40.7ZM85.3,45.9c1.3,0.5,0,1.1-4.4,2-11.9,2.4-16,6.3-17.8,16.6C61.9,71.3,59.3,78,57.8,78c-0.5,0-.5-0.8,0-1.8C59,74,60.3,65,59.5,65c-0.4,0-1.6,1.1-2.7,2.5-2.2,2.9-4.4,3.4-3.3.7a42.992,42.992,0,0,0,1.6-6c1.6-7.8,7.3-13.5,15.8-15.8C76,45,82.5,44.8,85.3,45.9ZM152,47.4c4.4,1.8,8.7,5.1,10.2,7.9s4.7,14.7,4,14.7a13.67669,13.67669,0,0,1-3.5-2.8l-3-2.7,0.7,4.5c0.4,2.5.9,5.6,1.3,7,0.5,2.4.5,2.4-1,.5-1.5-2.1-3.2-7.6-4.2-13.5-1.3-8.3-6.6-13-17.2-15.1-4.8-1-6-1.5-4.6-2.1C137.3,44.7,147.9,45.6,152,47.4ZM87.8,54.6l2.3,0.7-2.3,1.1A16.57157,16.57157,0,0,0,83.2,61c-1.3,1.9-3.6,3.8-5.1,4.2-3.9,1.1-5.5,4.9-3.7,9.2,1.9,4.6.1,6.6-2.6,3-2.9-3.6-3.4-9.6-1.4-14.8,2.3-5.9,5.1-7.7,13.6-8.4A13.996,13.996,0,0,1,87.8,54.6Zm56.8,1.6c3.7,1.7,6.8,9,6.1,14.5-0.6,5.3-3.9,9.5-5.9,7.5-0.9-.9-0.9-1.5,0-2.4,1.7-1.7,1.5-6.8-.5-9a5.899,5.899,0,0,0-3.8-1.8c-1.6,0-2.7-.9-3.5-3.1a13.52621,13.52621,0,0,0-4.3-4.9c-2.5-1.6-2.7-1.9-1.1-2.3C134.1,54,141.7,54.9,144.6,56.2Zm-38.7,4.4c3.7,1.5,4.4,1.5,8.6-.1,5.4-2.1,12.6-1.6,16.3,1.2,1.4,1.1,3.7,4.9,5.3,8.7a78.4377,78.4377,0,0,0,5.5,10.9c5.4,8.1,2.4,18.1-7.1,23.1-2.2,1.1-4.2,2.2-4.4,2.3-0.2.2,0.3,1.1,1.2,2.1,1.6,1.7,2.4,8.2,1.2,8.2a18.10321,18.10321,0,0,1-3.8-1.6l-3.2-1.5,3.4,2.9c3.8,3.2,3.6,6.1-.2,4.1-2.1-1.2-2.1-1.1-.4.8,2,2.3,2.1,3.5.5,5.1-0.8.8-1.8,0.6-3.9-.9a41.26679,41.26679,0,0,0-8.1-3.8c-4.7-1.6-5.3-2.1-5.6-4.7-0.2-2.4.3-3.3,2.3-4.4a17.96,17.96,0,0,0,4.8-4.4c2-2.8,2-2.9.1-2-2.5,1.1-14.3,1.1-16.8,0-1.9-.9-1.9-0.8.1,2a17.96,17.96,0,0,0,4.8,4.4c2,1.1,2.5,2,2.3,4.3-0.3,2.6-1,3.2-6.6,5.2-3.5,1.3-7.1,3-8.2,4-1.7,1.5-1.9,1.5-3.3-.6-1.5-2-1.4-2.3.6-4,1.2-1,1.7-1.8,1-1.9a2.70529,2.70529,0,0,0-1.9,1.1c-0.4.8-1,.7-1.8-0.1s-0.2-1.9,2.4-4c3.5-3,3.2-4.2-.4-1.5a7.694,7.694,0,0,1-2.8,1.5c-1.4,0-.8-6.7.7-8,1.9-1.5,1.9-3,.2-3-2.6,0-9.7-6-11.7-9.9-2.8-5.5-2.5-8.9,1.1-14.7A71.36983,71.36983,0,0,0,83.9,70C88.1,59.7,95.6,56.5,105.9,60.6ZM69.7,96.3c0.1,8.1,2.5,17.7,5.9,23.7l1.4,2.5-0.1-3c-0.2-5.5.1-9.8,0.7-9.3,0.3,0.3,1.2,3.6,1.9,7.3a69.80315,69.80315,0,0,0,4,12.2c1.4,3.1,2.3,5.8,2,6.1-0.2.3-2.6-.8-5.2-2.4-5.7-3.5-9.5-9.9-12-19.9-1.8-7.3-2.4-7.1-4.9,1l-1.3,4V111c-0.1-4.1.3-9,.9-10.8C63.8,97.4,68.6,88,69.3,88,69.4,88,69.6,91.7,69.7,96.3ZM156,97.8a33.0503,33.0503,0,0,1,1.9,13l-0.1,7.7-2-5.9c-2-5.8-3.7-6.2-3.8-.9,0,3.1-3.4,11.8-6.1,15.7-2.3,3.4-7,7-10.5,8-2,.6-2,0.4.7-5a60.4637,60.4637,0,0,0,3.9-11.8c1.8-9.2,2.4-9.7,3-2.6l0.5,6.5,2.9-7.5c2.3-5.9,3-9.6,3.4-17.4,0.4-9.9.4-9.9,2.3-7.5A38.66676,38.66676,0,0,1,156,97.8ZM54.4,96.5c-0.8,2-1.4,7-1.5,12.2,0,4.8-.4,9.7-0.8,10.8-0.6,1.6-1.1,1-2.4-3-2.4-6.9-2.1-10.3,1.4-17.3C54.3,92.6,56.9,90.6,54.4,96.5Zm114.5,2.7c3.5,7,3.7,9.3,1.5,16.8-2.1,7.3-3.4,5-3.4-6.5-0.1-5-.7-10.7-1.4-12.8C163.5,90.9,165.5,92.4,168.9,99.2Zm-52.8,24.9a26.38651,26.38651,0,0,1,7,3.8c2.8,2.4,3,2.9,1.9,4.8a15.80151,15.80151,0,0,1-4.2,3.8c-2.8,1.6-3,1.6-4.3-.2-1.4-1.7-1.4-1.7-1.5,0,0,3.9-10,4.1-10,.2a1.30957,1.30957,0,0,0-1-1.5,1.396,1.396,0,0,0-1,1.5c0,0.8-.2,1.5-0.5,1.5-1.7,0-6.6-3.3-7.6-5.1-0.9-1.7-.7-2.5,1.2-4.5C100.3,123.9,109,122,116.1,124.1Zm-42,15.4c5.9,4.4,8.7,9.3,9.5,17.2l0.6,5.8-1.9-2.6C80,156.5,69.9,144,69.6,144c-0.2,0-.1,2.4.2,5.2,0.6,7.1-1.1,5.5-4.4-4.2-1.9-5.4-2.4-8.2-1.9-11.2l0.7-4.1,2.4,3.1A43.19587,43.19587,0,0,0,74.1,139.5Zm81.9,1c-1,4.5-4.8,13.5-5.7,13.5-0.3,0-.3-2.3-0.1-5,0.3-2.8.1-5-.3-5a0.81676,0.81676,0,0,0-.9.8c0,0.4-2.1,3.2-4.6,6.2s-5.5,6.8-6.6,8.5l-2,3,0.5-5.7c0.8-8,3.1-12.2,9.8-17.5,3.2-2.5,6.6-5.7,7.6-7.2l1.7-2.6,0.7,3.5A21.07986,21.07986,0,0,1,156,140.5Zm-56.9,8.3c0.5,0.2,1.1,2,1.4,4,1.3,8.1,2.8,13.2,3.7,13.2,0.6,0,.7-1.1.4-2.5-0.8-3,.3-12.5,1.4-12.5,0.4,0,1,1.7,1.4,3.7A15.16332,15.16332,0,0,0,109,160c0.9,1.3,1.1,1.3,2,0a15.16332,15.16332,0,0,0,1.6-5.3c1.1-6.1,2.3-4.2,2.6,4,0.3,7.4.4,7.7,1.6,4.8a31.35229,31.35229,0,0,0,1.9-8c0.4-3.1,1.4-5.9,2.8-7.5a23.33192,23.33192,0,0,0,3-4.5c0.7-1.9.7-1.9,1.6,0.5,1.8,4.5,1.2,17.7-1.1,24.5-2.2,6.7-4,9.1-4,5.6,0-1.2-.4-2.1-1-2.1-1.1,0-9,15.9-9,18.3,0,2.7-1.7,2-2.5-1-0.9-3.8-7.7-17.3-8.7-17.3-0.4,0-.8.9-0.8,2,0,4-1.7,1.8-4-5.3-2.5-7.4-3.2-18.1-1.6-24.1l0.7-2.9,2.1,3.4A11.95529,11.95529,0,0,0,99.1,148.8Z"/><path d="M91.3,83.7A1.80391,1.80391,0,0,0,90,85.2c0,1.6,4.3,4.7,6.7,4.8,1.6,0,2.3.8,2.9,3.2,0.7,3.2.7,3.1,2.1-2.6,1.4-6.3,1.2-7.6-1.1-5.7-1.1,1-2.1.9-4.5-.3a11.6957,11.6957,0,0,0-3.3-1.5A6.38369,6.38369,0,0,0,91.3,83.7Z"/><path d="M123.6,84.7c-2.3,1.2-3.4,1.3-4.8.4-1.8-1.1-1.9-.9-1.1,2.6,0.4,2.1.7,4.8,0.8,6,0,3.3,1.1,2.8,1.9-.7,0.4-2.3,1.1-3,2.9-3,3.2,0,7.1-4.2,5.5-5.8C127.3,82.7,127.2,82.7,123.6,84.7Z"/></svg>