<?xml version="1.0" encoding="utf-8"?>
<!-- Generator: Adobe Illustrator 16.0.0, SVG Export Plug-In . SVG Version: 6.00 Build 0)  -->
<!DOCTYPE svg PUBLIC "-//W3C//DTD SVG 1.1//EN" "http://www.w3.org/Graphics/SVG/1.1/DTD/svg11.dtd">
<svg version="1.1" id="Layer_1" xmlns="http://www.w3.org/2000/svg" xmlns:xlink="http://www.w3.org/1999/xlink" x="0px" y="0px"
	 width="1080px" height="1080px" viewBox="0 0 1080 1080" enable-background="new 0 0 1080 1080" xml:space="preserve">
<circle fill="#FFFFFF" cx="540" cy="540" r="540"/>
<g id="Layer_1-2">
	
		<linearGradient id="SVGID_1_" gradientUnits="userSpaceOnUse" x1="-38.25" y1="685" x2="650.25" y2="685" gradientTransform="matrix(1 0 0 -1 234 1225)">
		<stop  offset="0" style="stop-color:#001C3A"/>
		<stop  offset="0.6" style="stop-color:#001E3D"/>
		<stop  offset="0.7" style="stop-color:#001F3F"/>
		<stop  offset="1" style="stop-color:#002042"/>
	</linearGradient>
	<path fill="url(#SVGID_1_)" d="M303.75,313.875l57.375-30.375l6.75,13.5l209.25-121.5l-13.5-10.125L546.75,155.25l-6.75-3.375
		L195.75,351v6.75l97.875-54L303.75,313.875z M303.75,442.125l165.375-97.875l6.75,13.5L688.5,236.25l-16.875-10.125l-16.875-6.75
		L648,216L195.75,475.875v6.75l97.875-54L303.75,442.125z M303.75,502.875L523.125,378l6.75,10.125l212.625-121.5l-16.875-6.75
		L708.75,249.75l-6.75-3.375l-506.25,290.25v10.125l97.875-57.375L303.75,502.875z M303.75,563.625l273.375-155.25l6.75,10.125
		L796.5,300.375l-16.875-10.125l-16.875-10.125L756,276.75l-560.25,324v6.75l97.875-54L303.75,563.625z M303.75,627.75l327.375-189
		l6.75,13.5L850.5,330.75l-16.875-10.125l-13.5-6.75L810,307.125L195.75,661.5v10.125l97.875-57.375L303.75,627.75z M870.75,344.25
		L864,337.5L195.75,725.625v6.75l97.875-54l10.125,13.5L631.125,499.5l6.75,13.5L884.25,374.625V351L870.75,344.25z
		 M239.625,772.875l54-33.75l6.75,13.5l330.75-189l6.75,13.5l246.375-141.75V391.5L229.5,766.125L239.625,772.875z M631.125,627.75
		l6.75,13.5L884.25,496.125V452.25L283.5,799.875l10.125,3.375l54-33.75L357.75,783 M347.625,833.625L405,803.25l6.75,13.5
		L631.125,688.5l6.75,13.5L884.25,560.25v-43.875L337.5,830.25L347.625,833.625z M401.625,864L459,833.625l6.75,13.5l165.375-94.5
		l6.75,13.5l246.375-141.75v-47.25l-492.75,283.5L401.625,864z M445.5,891l10.125,6.75L513,864l6.75,13.5l111.375-64.125l6.75,13.5
		l246.375-141.75V641.25L445.5,891z M509.625,928.125l54-33.75l10.125,13.5l57.375-30.375l6.75,13.5L884.25,749.25V702
		L502.875,924.75L509.625,928.125z M634.5,205.875l-16.875-10.125L600.75,189l-6.75-6.75l-398.25,229.5v10.125l97.875-57.375
		L303.75,378l111.375-64.125l6.75,13.5L634.5,205.875z"/>
</g>
<g id="Layer_x0020_1_1_">
	<g id="_1421344023328_1_">
		<path fill="#666666" d="M1035.15,324.967c118.783,273.459-6.617,591.453-280.114,710.244
			c-273.39,118.732-591.395-6.685-710.14-280.145C-73.934,481.603,51.46,163.598,324.875,44.848
			c273.47-118.793,591.486,6.654,710.273,280.128v-0.007L1035.15,324.967L1035.15,324.967z"/>
		<path fill="#FFFFFF" d="M682.153,334.061c-35.194-63.568-102.117-60.934-177.167-35.864l-39.968-92.018l-56.009,24.337
			l38.921,89.593c-14.727,6.395-29.65,13.224-44.478,20.019l-39.165-90.193l-55.979,24.314l39.939,92.001
			c-12.018,5.514-23.83,10.917-35.438,15.965l-0.132-0.285l-77.265,33.526l26,59.816c0,0,41.021-18.751,40.663-17.696
			c22.686-9.847,35.794,0.118,42.883,10.548l45.536,104.827c1.567-0.671,3.637-1.494,6.093-2.179
			c-1.869,0.814-3.864,1.669-5.915,2.582l63.773,146.862c2.108,7.57,2.859,20.781-12.982,27.692
			c0.994,0.32-40.719,17.675-40.719,17.675l17.924,71.729l72.892-31.663c13.575-5.874,27.02-11.44,40.16-17.056l40.45,93.057
			l55.954-24.295l-40.002-92.084c15.505-6.354,30.419-12.689,44.933-19.006l39.788,91.668l56.012-24.34l-40.339-92.907
			c91.823-46.306,147.427-98.651,117.196-190.64c-24.32-74.075-71.614-91.296-130.64-80.917
			c25.292-30.645,32.94-68.599,7.105-115.076l-0.024,0L682.153,334.061z M690.225,567.099
			c30.24,69.536-92.28,113.353-130.227,129.878L506.452,573.66c37.976-16.483,152.269-79.107,183.777-6.563L690.225,567.099z
			 M588.606,404.441c27.469,63.281-75.052,99.036-106.672,112.771l-48.57-111.833c31.619-13.736,126.575-66.93,155.247-0.941
			L588.606,404.441L588.606,404.441z"/>
	</g>
</g>
<g>
	<g id="token">
		<path d="M1061.39,806.462c0,73.817-31.538,140.273-81.881,186.612c-97.063,89.324-246.397,89.317-343.462-0.014
			c-50.333-46.342-81.864-112.787-81.864-186.602c0-140.063,113.543-253.604,253.604-253.604
			C947.848,552.855,1061.39,666.4,1061.39,806.462z"/>
		<polygon fill="#8BE1EA" points="886.78,941.263 879.349,908.375 831.92,882.305 798.622,822.99 754.92,839.619 721.484,819.896 
			692.616,858.473 638.289,874.896 685.771,851.238 696.73,798.008 762.451,797.402 768.106,774.171 750.085,740.039 
			757.997,691.253 698.73,618.318 774.179,682.169 777.015,735.977 807.249,769.814 870.714,727.736 943.72,719.412 885.203,737.85 
			835.724,803.645 855.683,862.924 900.563,886.408 893.573,938.941 916.854,961.793 		"/>
		<path fill="#44C4E2" d="M722.767,642.836l48.302,40.878l2.702,51.312l0.115,2.238l1.495,1.678l27.647,30.938l3.68,4.118
			l4.604-3.051l60.521-40.129l39.276-4.479l-25.896,8.16l-1.949,0.613l-1.229,1.637l-47.854,63.635l-2.021,2.688l1.072,3.185
			l19.012,56.473l0.817,2.43l2.271,1.188l41.769,21.854l-6.483,48.74l-0.376,2.821l-0.627-0.429l-6.842-30.264l-0.633-2.803
			l-2.519-1.384l-45.371-24.938l-31.508-56.121l-2.688-4.797l-5.143,1.956l-39.698,15.104L725.564,818.6l-4.924-2.902l-3.43,4.574
			l-26.521,35.448l-17.207,5.202l12.315-6.139l2.779-1.384l0.626-3.04l10.126-49.188l60.663-0.561l4.965-0.046l1.175-4.824
			l4.785-19.646l0.571-2.351l-1.129-2.138L753.4,739.49l7.513-46.318l0.457-2.826l-1.804-2.222L722.767,642.836 M674.695,593.797
			l79.925,98.356l-7.854,48.432l17.957,34.005l-4.783,19.646l-65.814,0.604l-11.165,54.235l-79.861,39.793l91.445-27.647
			l27.782-37.126l32.295,19.054l42.564-16.196l32.397,57.71l46.968,25.817l7.396,32.712l60.799,41.505l-47.802-46.913l7.073-53.166
			l-45.725-23.925l-19.014-56.475l47.854-63.634l89.188-28.101l-106.731,12.17l-61.804,40.977L780.14,734.69l-2.849-54.063
			L674.695,593.797L674.695,593.797z"/>
		<polygon fill="#197A91" points="674.695,593.797 693.479,629.242 740.621,692.508 736.124,739.557 564.816,722.99 610.54,631.751 
					"/>
		<polygon opacity="0.48" fill="#197A91" enable-background="new    " points="786.304,666.158 830.648,631.751 838.093,585.822 
			866.829,712.484 807.787,740.585 789.71,722.99 		"/>
		<polygon fill="#197A91" points="838.093,552.859 838.093,585.822 830.648,631.751 786.304,666.158 703.759,604.253 
			674.695,593.797 749.836,546.479 		"/>
		<polygon opacity="0.39" fill="#197A91" enable-background="new    " points="838.093,552.859 838.093,585.822 866.829,712.484 
			992.273,712.484 1010.408,653.932 940.362,568.659 		"/>
		<polygon opacity="0.35" fill="#197A91" enable-background="new    " points="864.716,798.604 981.64,818.689 992.273,712.484 
			976.324,712.484 893.74,746.029 		"/>
		<polygon opacity="0.86" fill="#197A91" enable-background="new    " points="686.036,780.941 564.816,722.99 736.124,739.557 
			740.621,767.65 738.14,774.59 		"/>
		<polygon opacity="0.21" fill="#197A91" enable-background="new    " points="1010.408,653.932 1061.39,740.585 1061.39,849.526 
			1046.503,895.249 981.64,818.689 992.273,712.484 		"/>
		<polygon fill="#197A91" points="686.036,780.941 564.816,722.99 547.804,801.678 564.816,901.629 603.097,888.869 
			634.997,794.234 		"/>
		<polygon opacity="0.63" fill="#197A91" enable-background="new    " points="673.81,842.615 686.036,780.941 634.997,794.234 
			603.097,888.869 		"/>
		<polygon opacity="0.45" fill="#197A91" enable-background="new    " points="890.195,856.969 876.554,843.193 858.295,812.311 
			858.295,812.311 981.64,818.689 957.183,880.362 950.804,920.77 940.17,937.783 944.747,984.694 905.614,933.529 911.994,878.768 
					"/>
		<polygon opacity="0.34" fill="#197A91" enable-background="new    " points="876.554,945.025 779.127,969.189 728.09,926.126 
			826.567,901.629 866.829,914.922 		"/>
		<polygon opacity="0.56" fill="#197A91" enable-background="new    " points="782.799,859.628 750.98,854.536 728.09,926.126 
			826.567,901.629 		"/>
		<polygon opacity="0.65" fill="#197A91" enable-background="new    " points="722.761,843.193 700.289,872.338 728.09,926.126 
			750.98,854.536 		"/>
		<path opacity="0.67" fill="#197A91" enable-background="new    " d="M564.816,901.629c0,0,79.16,100.799,79.751,98.932
			c0.588-1.862,26.9-64.063,26.9-64.063l56.619-10.367l-27.801-53.789l-97.19,16.531L564.816,901.629z"/>
		<polygon opacity="0.25" fill="#197A91" enable-background="new    " points="728.09,1048.138 674.66,1032.985 644.567,1000.563 
			671.472,936.494 728.09,926.126 779.127,969.189 		"/>
		<path fill="#279DC1" d="M779.892,676.875c-0.109,0.366-0.188,0.568-0.188,0.568s1.914-6.108,3.979-5.938
			c0.939,0.078,1.484,4.109,2.646,5.938c0.061-10.943-14.309-19.858-14.309-19.858l8.114,8.574
			C782.267,669.47,781.298,672.29,779.892,676.875z"/>
		<path fill="#279DC1" d="M703.759,604.253c0,0,68.502,49.078,75.945,53.331c7.442,4.254,10.893-0.873,18.336-5.482
			c7.442-4.604,26.928-18.297,28.526-22.263c1.601-3.965,6.563-32.675,9.044-44.017c2.479-11.344,2.836-27.647,2.836-27.647
			s2.836,32.254,3.897,35.622c1.063,3.367,13.305,69.406,13.305,69.406s-12.596-44.772-15.075-53.634
			c-2.48-8.86-3.898,3.896-5.672,12.052c-1.771,8.152-2.48,8.861-2.48,8.861s-1.947,4.431-4.254,6.379
			c-5.255,4.445-30.836,21.138-35.798,26.342c-4.964,5.202-2.837,15.836-2.659,26.116c0.178,10.274-0.423,26.021-0.423,26.021
			s0.423-39.488-7.551-48.667C770.994,654.32,703.759,604.253,703.759,604.253z"/>
		<path fill="#197A91" d="M893.918,712.484c-14.887,0-20.946,0.4-27.089,2.797c-6.142,2.393-57.979,24.79-57.979,24.79
			s52.104-25.854,53.168-32.5c1.063-6.646-0.326-17.736-0.326-17.736s4.313,12.687,9.363,15.876
			C876.105,708.899,893.918,712.484,893.918,712.484z"/>
		<path fill="#279DC1" d="M583.719,724.819c34.09,5.437,140.065,16.248,145.913,20.231c5.853,3.988,10.014,16.498,10.014,16.498
			s-2.566-15.798-2.035-21.995c0.531-6.196,3.188-43.682,4.785-45.273c1.097-0.986,2.512-1.555,3.983-1.596
			c0,0-3.866-0.604-6.645-2.851c-2.779-2.247-46.256-60.595-46.256-60.595s40.938,56.266,42.53,63.179
			c1.599,6.91-1.077,39.516-7.922,43.063C720.24,739.557,583.719,724.819,583.719,724.819z"/>
		<path fill="#105A66" d="M789.199,714.49c-0.287,4.381-5.07,15.276-5.07,15.276s3.723-5.58,5.581-4.649
			c1.861,0.93,16.615,12.76,16.881,16.879c0.269,4.122,1.196,15.152,1.196,15.152s0.467-14.557,2.327-16.279
			c1.856-1.729,16.114-9.063,16.114-9.063s-15.118,7.333-17.379,6.669c-2.738-0.806-18.275-13.891-18.674-16.018
			C789.776,720.332,789.199,714.49,789.199,714.49z"/>
		<path fill="#279DC1" d="M907.145,740.585c-13.403,5.444-16.948,2.963-16.948,2.963c1.243,2.668,1.243,5.75,0,8.418
			c-2.13,4.341-23.686,43.59-26.85,46.122c-2.657,2.127-11.964,6.07-11.964,6.07c6.354-1.397,12.816-2.229,19.316-2.482
			c10.102-0.311,97.906,14.774,97.906,14.774s-93.937-17.195-95.825-20.224c-3.321-5.316,10.323-24.68,14.577-32.829
			c4.254-8.152,5.701-13.115,9.584-16.308C900.829,743.902,907.145,740.585,907.145,740.585z"/>
		<path fill="#279DC1" d="M612.766,745.913c22.229,12.433,71.587,32.637,68.133,35.028c-3.457,2.393-39.166,12.052-48.027,11.963
			c-3.201-0.031-19.354,65.057-21.932,72.703c-2.578,7.646-7.045,19.271-9.97,20.869c-2.925,1.595-24.028,11.109-24.028,11.109
			s23.787-8.313,26.155-8.72c2.368-0.405,7.71-19.142,9.837-24.457c2.127-5.316,20.47-63.533,24.188-66.724
			c3.723-3.189,23.926-9.307,31.104-10.636c7.179-1.327,14.354-2.924,15.684-0.266s-5.85,20.51-7.176,29.66
			c-1.329,9.149-2.128,21.646-4.255,24.305c-2.128,2.658-39.636,28.655-39.636,28.655s38.839-24.847,40.966-24.757
			c2.127,0.089,5.58,2.479,5.58,2.479s-4.255-3.811-4.519-5.139c-0.268-1.33,11.163-54.144,12.228-55.473
			c1.063-1.328,4.783,4.521,4.783,4.521s-3.012-5.76-2.037-7.354c0.979-1.596,24.813-5.229,33.055-6.112
			c8.24-0.888,14.088-0.443,16.566,0.709c2.482,1.15,15.063,10.962,15.063,10.962s-11.874-11.938-12.139-13.978
			c-0.268-2.037-0.442-5.229,1.325-5.403c1.772-0.179,13.473,2.479,13.473,2.479s-12.673-3.188-14.269-5.228
			c-1.595-2.037-3.617-7.762-3.658-8.033c-0.039-0.273,0.201,2.186,0.291,5.729c0.089,3.547,0.619,8.686-1.33,8.948
			c-1.945,0.27-42.354,7.089-49.62,5.671C681.337,778.013,612.766,745.913,612.766,745.913z"/>
		<path fill="#279DC1" d="M722.366,832.514c0,0,0.354,7.004-1.594,10.683c-1.95,3.676-14.89,20.863-16.482,22.461
			c-1.595,1.595-3.722,2.127-6.38,0c0.887,4.073,0.532,4.783-2.304,5.672c-2.834,0.886-83.55,16.02-83.55,16.02
			s77.878-12.831,81.951-12.831c4.076,0,6.382,1.24,8.509,4.784c2.127,3.545,8.805,14.386,8.805,14.386s-7.208-15.979-7.74-19.348
			c-0.531-3.367,16.143-27.555,18.812-28.887c2.67-1.334,6.354,1.24,10.077,2.836c3.722,1.595,13.112,4.35,15.239,7.09
			c2.126,2.736-10.273,41.526-10.273,41.526s12.399-37.983,14.526-39.401c2.126-1.418,27.291,0.709,30.128,3.368
			c2.836,2.659,23.5,20.631,23.5,20.631s-18.007-20.631-19.067-22.934c-1.063-2.308,6.38-23.66,6.38-23.66
			s-7.269,19.229-11.164,20.646c-3.898,1.416-27.471-0.709-28.534-1.947c-1.063-1.24,0.709-6.733,0.709-6.733
			s-2.303,4.606-3.721,4.784s-22.884-7.62-24.56-9.214C723.96,840.844,722.366,832.514,722.366,832.514z"/>
		<path fill="#1C6975" d="M712.984,896.902c2.521,4.873,9.382,22.095,10.445,24.931c1.063,2.834-11.238,7.206-17.242,8.307
			c-6.003,1.102,18.765-3.167,21.9-1.395c3.138,1.77,13.512,8.782,13.512,8.782s-8.067-8.431-7.007-10.2
			c1.063-1.771,45.975-14.253,45.975-14.253s-43.185,9.911-47.08,9.557c-3.9-0.354,7.758-37.158,7.758-37.158
			s-11.966,34.588-14.271,36.006C724.671,922.896,712.984,896.902,712.984,896.902z"/>
		<path fill="#279DC1" d="M858.295,812.311c0,0,16.482,27.916,16.128,30.886c-0.354,2.967-9.707,13.241-9.707,13.241
			s9.717-10.274,11.838-9.392c2.123,0.886,8.502,6.912,12.048,10.101c3.545,3.191,19.141,19.317,19.493,21.092
			c0.354,1.771-2.128,5.314-2.128,5.314s2.128-1.771,3.19-1.418c1.063,0.354-0.354,18.255-1.418,26.229
			c-1.063,7.977-1.95,22.149-3.545,24.278c-1.595,2.128-4.253,4.887-4.253,4.887s3.544-3.604,5.139-2.118
			c1.596,1.482,8.586,8.648,8.586,8.648s-6.459-8.401-6.813-11.595c-0.354-3.188,4.963-49.443,5.672-51.217s1.317-2.659-2.53-5.495
			c-3.853-2.835-29.191-27.777-31.854-32.563C875.482,838.406,858.295,812.311,858.295,812.311z"/>
		<path fill="#17768C" d="M701.379,931.019c-4.975,0.582-17.868,2.245-20.592,2.577c-2.727,0.332-11.563-0.196-12.495-0.332
			c-0.932-0.131-0.333,3.392-0.467,5.055c-0.132,1.658-21.756,58.671-21.756,58.671s21.451-51.115,22.223-53.09
			c0.858-2.194,1.528-5.495,3.988-6.369C674.737,936.652,701.379,931.019,701.379,931.019z"/>
		<path fill="#44C4E2" d="M807.787,555.518c138.523-0.146,250.939,112.03,251.085,250.558
			c0.057,52.813-16.558,104.294-47.478,147.104c-9.932,13.745-21.217,26.456-33.69,37.943
			c-96.046,88.384-243.813,88.377-339.852-0.014c-25.096-23.085-45.231-51.031-59.193-82.143
			c-56.657-126.436-0.091-274.859,126.344-331.518C737.332,562.964,772.36,555.49,807.787,555.518 M807.787,534.25
			c-150.34,0-272.211,121.872-272.211,272.212c0,79.229,33.845,150.552,87.873,200.293c104.181,95.888,264.475,95.892,368.662,0.011
			C1046.145,957.031,1080,885.697,1080,806.462C1079.999,656.122,958.127,534.25,807.787,534.25L807.787,534.25z"/>
	</g>
	<g id="glow">
		<g>
			
				<image overflow="visible" enable-background="new    " width="774" height="808" xlink:href="3D58A270.png"  transform="matrix(0.5317 0 0 0.5317 583.9551 574.6563)">
			</image>
		</g>
	</g>
</g>
</svg>
