<?xml version="1.0" encoding="utf-8"?>
<!-- Generator: Adobe Illustrator 16.0.0, SVG Export Plug-In . SVG Version: 6.00 Build 0)  -->
<!DOCTYPE svg PUBLIC "-//W3C//DTD SVG 1.1//EN" "http://www.w3.org/Graphics/SVG/1.1/DTD/svg11.dtd">
<svg version="1.1" id="Layer_1" xmlns="http://www.w3.org/2000/svg" xmlns:xlink="http://www.w3.org/1999/xlink" x="0px" y="0px"
	 width="1080px" height="1080px" viewBox="0 0 1080 1080" enable-background="new 0 0 1080 1080" xml:space="preserve">
<circle fill="#FFFFFF" cx="540" cy="540" r="540"/>
<g id="Layer_x0020_1_1_">
	<g id="_1421344023328_1_">
		<path fill="#666666" d="M1035.15,324.967c118.783,273.459-6.617,591.453-280.114,710.244
			c-273.39,118.732-591.395-6.685-710.14-280.145C-73.934,481.603,51.46,163.598,324.875,44.848
			c273.47-118.793,591.486,6.654,710.273,280.128v-0.007L1035.15,324.967L1035.15,324.967z"/>
		<path fill="#FFFFFF" d="M682.153,334.061c-35.194-63.568-102.117-60.934-177.167-35.864l-39.968-92.018l-56.009,24.337
			l38.921,89.593c-14.727,6.395-29.65,13.224-44.478,20.019l-39.165-90.193l-55.979,24.314l39.939,92.001
			c-12.018,5.514-23.83,10.917-35.438,15.965l-0.132-0.285l-77.265,33.526l26,59.816c0,0,41.021-18.751,40.663-17.696
			c22.686-9.847,35.794,0.118,42.883,10.548l45.536,104.827c1.567-0.671,3.637-1.494,6.093-2.179
			c-1.869,0.814-3.864,1.669-5.915,2.582l63.773,146.862c2.108,7.57,2.859,20.781-12.982,27.692
			c0.994,0.32-40.719,17.675-40.719,17.675l17.924,71.729l72.892-31.663c13.575-5.874,27.02-11.44,40.16-17.056l40.45,93.057
			l55.954-24.295l-40.002-92.084c15.505-6.354,30.419-12.689,44.933-19.006l39.788,91.668l56.012-24.34l-40.339-92.907
			c91.823-46.306,147.427-98.651,117.196-190.64c-24.32-74.075-71.614-91.296-130.64-80.917
			c25.292-30.645,32.94-68.599,7.105-115.076l-0.024,0L682.153,334.061z M690.225,567.099
			c30.24,69.536-92.28,113.353-130.227,129.878L506.452,573.66c37.976-16.483,152.269-79.107,183.777-6.563L690.225,567.099z
			 M588.606,404.441c27.469,63.281-75.052,99.036-106.672,112.771l-48.57-111.833c31.619-13.736,126.575-66.93,155.247-0.941
			L588.606,404.441L588.606,404.441z"/>
	</g>
</g>
<g id="Layer_1-2" display="none">
	
		<linearGradient id="SVGID_1_" gradientUnits="userSpaceOnUse" x1="-38.25" y1="685" x2="650.25" y2="685" gradientTransform="matrix(1 0 0 -1 234 1225)">
		<stop  offset="0" style="stop-color:#001C3A"/>
		<stop  offset="0.6" style="stop-color:#001E3D"/>
		<stop  offset="0.7" style="stop-color:#001F3F"/>
		<stop  offset="1" style="stop-color:#002042"/>
	</linearGradient>
	<path display="inline" fill="url(#SVGID_1_)" d="M303.75,313.875l57.375-30.375l6.75,13.5l209.25-121.5l-13.5-10.125L546.75,155.25
		l-6.75-3.375L195.75,351v6.75l97.875-54L303.75,313.875z M303.75,442.125l165.375-97.875l6.75,13.5L688.5,236.25l-16.875-10.125
		l-16.875-6.75L648,216L195.75,475.875v6.75l97.875-54L303.75,442.125z M303.75,502.875L523.125,378l6.75,10.125l212.625-121.5
		l-16.875-6.75L708.75,249.75l-6.75-3.375l-506.25,290.25v10.125l97.875-57.375L303.75,502.875z M303.75,563.625l273.375-155.25
		l6.75,10.125L796.5,300.375l-16.875-10.125l-16.875-10.125L756,276.75l-560.25,324v6.75l97.875-54L303.75,563.625z M303.75,627.75
		l327.375-189l6.75,13.5L850.5,330.75l-16.875-10.125l-13.5-6.75L810,307.125L195.75,661.5v10.125l97.875-57.375L303.75,627.75z
		 M870.75,344.25L864,337.5L195.75,725.625v6.75l97.875-54l10.125,13.5L631.125,499.5l6.75,13.5L884.25,374.625V351L870.75,344.25z
		 M239.625,772.875l54-33.75l6.75,13.5l330.75-189l6.75,13.5l246.375-141.75V391.5L229.5,766.125L239.625,772.875z M631.125,627.75
		l6.75,13.5L884.25,496.125V452.25L283.5,799.875l10.125,3.375l54-33.75L357.75,783 M347.625,833.625L405,803.25l6.75,13.5
		L631.125,688.5l6.75,13.5L884.25,560.25v-43.875L337.5,830.25L347.625,833.625z M401.625,864L459,833.625l6.75,13.5l165.375-94.5
		l6.75,13.5l246.375-141.75v-47.25l-492.75,283.5L401.625,864z M445.5,891l10.125,6.75L513,864l6.75,13.5l111.375-64.125l6.75,13.5
		l246.375-141.75V641.25L445.5,891z M509.625,928.125l54-33.75l10.125,13.5l57.375-30.375l6.75,13.5L884.25,749.25V702
		L502.875,924.75L509.625,928.125z M634.5,205.875l-16.875-10.125L600.75,189l-6.75-6.75l-398.25,229.5v10.125l97.875-57.375
		L303.75,378l111.375-64.125l6.75,13.5L634.5,205.875z"/>
</g>
<g>
	<g opacity="0.4" enable-background="new    ">
		
			<image overflow="visible" enable-background="new    " width="2525" height="2525" xlink:href="A1F69C81.png"  transform="matrix(0.2381 0 0 0.2381 491.7383 521.7598)">
		</image>
	</g>
	<circle fill="#EFAF41" cx="811.979" cy="804.973" r="268.021"/>
</g>
<g id="Layer_1-2_1_">
	<path fill="#5D5D5D" d="M726.549,775.892L812,690.441l85.491,85.482l49.72-49.72L812,591.002L676.833,726.169l49.718,49.72
		 M592.002,811l49.722-49.729l49.723,49.718l-49.727,49.722L592.002,811z M726.549,846.113L812,931.559l85.489-85.48l49.746,49.688
		l-0.024,0.025L812,1030.998L676.833,895.831l-0.07-0.07l49.792-49.647 M932.559,811.021L982.28,761.3l49.718,49.718l-49.72,49.727
		L932.559,811.021z"/>
	<path fill="#5D5D5D" d="M862.427,810.974h0.021L812,760.521L774.711,797.8l0,0l-4.284,4.285l-8.834,8.837l-0.066,0.068l0.066,0.067
		L812,861.479l50.451-50.447l0.025-0.028l-0.051-0.022"/>
</g>
</svg>
