<svg id="Layer_1" data-name="Layer 1" xmlns="http://www.w3.org/2000/svg" viewBox="0 0 220.71522 220.71522"><title>beefy</title><g id="y9WFlg.tif"><path d="M10.36231,109.92476c0.01317-53.51665,43.83843-99.12432,100.35552-98.9459,54.45855,0.17193,98.84364,45.03352,98.601,100.162A99.48048,99.48048,0,0,1,10.36231,109.92476Zm57.031,17.60627,0.03137,0c0,6.82823-.06374,13.65718.01244,20.48456,0.19679,17.63742,12.38074,29.82274,29.93958,29.96478q11.74,0.095,23.48111.0477c14.81087-.04326,29.19881-14.30243,29.30559-29.11275,0.07925-10.99144.52249-22.01491-.14961-32.96558-0.48955-7.97617,2.56587-13.24365,8.68268-17.72813a32.07513,32.07513,0,0,0,12.76015-20.20318c1.319-6.752-1.31918-9.73952-8.144-9.9183-4.32758-.11337-8.66507-0.20129-12.98737-0.02961-2.611.10371-3.51193-.72664-3.38243-3.37206,0.16985-3.47012.26682-7.01156-1.0965-10.33114-2.63531-6.41677-9.21828-9.8052-16.3476-8.483-6.45268,1.19673-10.80167,6.9153-11.12443,14.62777-0.30962,7.39842-.30962,7.39842-7.24832,7.39855-8.16654.00015-8.16653,0.00015-8.88549-8.21167-0.71978-8.22131-6.03729-13.71247-13.53645-13.97857-8.04063-.28531-14.123,4.72338-15.22443,12.72041a30.742,30.742,0,0,0-.08694,6.48347c0.18232,2.39158-.65627,3.17316-3.07253,3.10538-4.82428-.13531-9.66708-0.14381-14.48377.12553-5.50583.30788-8.052,3.79034-6.92768,9.11047,2.05677,9.73262,6.91874,17.6422,15.64331,22.70307,2.43542,1.41271,2.953,3.02,2.89735,5.57954C67.29015,112.87283,67.39334,120.20305,67.39334,127.531Z" fill="#f5eee4"/><path d="M67.39334,127.531c0-7.328-.1032-14.6582.056-21.98272,0.05565-2.55959-.46193-4.16682-2.89735-5.57954C55.82746,94.9079,50.96549,86.99833,48.90872,77.26571c-1.12429-5.32013,1.42185-8.80259,6.92768-9.11047,4.81669-.26934,9.65949-0.26084,14.48377-0.12553,2.41625,0.06777,3.25484-.71381,3.07253-3.10538a30.742,30.742,0,0,1,.08694-6.48347c1.10143-7.997,7.18381-13.00571,15.22443-12.72041,7.49916,0.2661,12.81667,5.75727,13.53645,13.97857,0.719,8.21183.71895,8.21183,8.88549,8.21167,6.9387-.00013,6.93871-0.00013,7.24832-7.39855,0.32276-7.71247,4.67175-13.431,11.12443-14.62777,7.12932-1.32222,13.71228,2.0662,16.3476,8.483,1.36331,3.31958,1.26634,6.861,1.0965,10.33114-0.1295,2.64542.77141,3.47576,3.38243,3.37206,4.3223-.17168,8.65979-0.08376,12.98737.02961,6.8248,0.17879,9.463,3.16631,8.144,9.9183a32.07513,32.07513,0,0,1-12.76015,20.20318c-6.11681,4.48447-9.17223,9.752-8.68268,17.72813,0.6721,10.95068.22887,21.97414,0.14961,32.96558-0.10678,14.81032-14.49472,29.06949-29.30559,29.11275q-11.74043.03429-23.48111-.0477c-17.55884-.142-29.74278-12.32736-29.93958-29.96478-0.07618-6.82738-.01244-13.65633-0.01244-20.48456ZM66.46,82.27239a14.48076,14.48076,0,0,0,8.88667,7.34339c4.51042,1.44071,6.24192,4.222,6.19768,8.90517-0.1541,16.31258-.11211,32.62776-0.03848,48.94147,0.04593,10.17406,6.03368,16.16649,16.11966,16.24812,8.32293,0.06737,16.647.04137,24.97031,0.00067,10.47415-.05119,16.27521-6.1273,16.20377-16.56613-0.0188-2.74513-.90509-4.08917-3.51381-5.06013a43.42381,43.42381,0,0,1-17.34008-12.29028A60.59641,60.59641,0,0,1,102.1946,86.8964c0.04625-2.125.97014-4.7556-3.05546-4.68607C88.52091,82.39372,77.89742,82.27239,66.46,82.27239Zm70.54232-19.33791c0-.65893.03473-1.32-0.006-1.97641-0.18127-2.92348-1.12231-5.316-4.604-5.15487-3.17389.14687-4.0502,2.30622-3.94267,5.14,0.06242,1.645.06966,3.29677-.00314,4.94086-0.07054,1.59351.4935,2.26528,2.1837,2.52086C135.96807,69.21208,137.01908,68.39408,137.00228,62.93448Zm-1.71313,54.27844c-0.48614-3.47752-2.36-5.43508-5.94154-5.27775-3.35725.14747-5.101,2.00507-5.06413,5.42465,0.039,3.614,1.86395,5.611,5.47511,5.56708C133.38448,122.88285,134.98471,120.62646,135.28914,117.21293ZM91.314,62.2549c-0.14064-2.44246.90848-6.43329-3.97252-6.41022-5.08632.024-4.10738,4.24546-4.26706,7.38795-0.14279,2.81012-.41369,5.26037,4.12791,5.33C92.30847,68.64082,91.28292,65.66591,91.314,62.2549Z" fill="#030303"/><path d="M66.46,82.27239c11.43746,0,22.061.12133,32.67918-.06207,4.0256-.06953,3.10171,2.56108,3.05546,4.68607a60.59641,60.59641,0,0,0,15.75108,42.89826,43.42381,43.42381,0,0,0,17.34008,12.29028c2.60872,0.971,3.495,2.315,3.51381,5.06013,0.07144,10.43883-5.72961,16.51494-16.20377,16.56613-8.3233.0407-16.64738,0.0667-24.97031-.00067-10.086-.08163-16.07373-6.07407-16.11966-16.24812-0.07364-16.31371-.11562-32.62888.03848-48.94147,0.04424-4.68319-1.68726-7.46445-6.19768-8.90517A14.48076,14.48076,0,0,1,66.46,82.27239Zm31.21666,35.03908c-0.1069-3.11955-1.88015-5.23567-5.11512-5.28988-3.177-.05323-5.25449,1.80323-5.30223,5.25119-0.047,3.3952,1.87855,5.49107,5.05589,5.561C95.46842,122.90317,97.47969,120.93534,97.67662,117.31147Z" fill="#f5eee4"/><path d="M137.006,62.93448c0.01309,5.45959-1.03792,6.2776-6.37582,5.47044-1.6902-.25558-2.25424-0.92735-2.1837-2.52086,0.0728-1.64409.06557-3.29587,0.00314-4.94086-0.10753-2.83379.76878-4.99313,3.94267-5.14,3.4817-.16113,4.42274,2.23139,4.604,5.15487C137.037,61.61448,137.00228,62.27556,137.006,62.93448Z" fill="#f5eee4"/><path d="M135.28914,117.21293c-0.30443,3.41354-1.90466,5.66992-5.53056,5.714-3.61116.04389-5.43613-1.953-5.47511-5.56708-0.03687-3.41958,1.70687-5.27718,5.06413-5.42465C132.92914,111.77784,134.803,113.73541,135.28914,117.21293Z" fill="#f5eee4"/><path d="M91.314,62.2549c-0.031,3.411.99451,6.38593-4.11167,6.30769-4.5416-.0696-4.2707-2.51984-4.12791-5.33,0.15968-3.14249-.81926-7.36391,4.26706-7.38795C92.22244,55.8216,91.17332,59.81244,91.314,62.2549Z" fill="#f5eee4"/><path d="M97.67662,117.31147c-0.19692,3.62387-2.2082,5.59171-5.36146,5.52229-3.17735-.06992-5.10292-2.16579-5.05589-5.561,0.04774-3.448,2.12521-5.30442,5.30223-5.25119C95.79647,112.0758,97.56972,114.19192,97.67662,117.31147Z" fill="#030303"/></g><path d="M110.35761,12A98.3576,98.3576,0,1,1,12,110.3576,98.469,98.469,0,0,1,110.35761,12m0-12a110.3576,110.3576,0,1,0,110.3576,110.3576A110.3576,110.3576,0,0,0,110.35761,0h0Z" fill="#c4bcb0"/></svg>