<svg id="Layer_2" data-name="Layer 2" xmlns="http://www.w3.org/2000/svg" xmlns:xlink="http://www.w3.org/1999/xlink" viewBox="0 0 60 60"><defs><linearGradient id="linear-gradient" x1="30" y1="60" x2="30" gradientTransform="matrix(1, 0, 0, -1, 0, 60)" gradientUnits="userSpaceOnUse"><stop offset="0" stop-color="#54dade"/><stop offset="0.762" stop-color="#24c7d6"/></linearGradient><linearGradient id="linear-gradient-2" x1="25.74619" y1="43.95313" x2="25.74619" y2="25.40313" gradientTransform="matrix(1, 0, 0, -1, 0, 60)" gradientUnits="userSpaceOnUse"><stop offset="0" stop-color="#9f4a08"/><stop offset="0.37" stop-color="#7d3900"/><stop offset="1" stop-color="#8d4104"/></linearGradient></defs><title>cake-bnb</title><circle cx="30" cy="30" r="30" fill="url(#linear-gradient)"/><path d="M10.51356,33.29612q-0.00778.16809-.00781,0.33731a7.33268,7.33268,0,0,0,.10956,1.26225H10.50575V35.5485a7.31174,7.31174,0,0,0,.0615.94675C11.36156,42.58956,19.7585,47.38481,30,47.38481s18.63844-4.79525,19.43275-10.88956a7.31174,7.31174,0,0,0,.0615-0.94675V34.89569H49.38469a7.3328,7.3328,0,0,0,.10956-1.26225q0-.16922-0.00782-0.33731C49.19238,26.91513,40.58056,21.79719,30,21.79719S10.80763,26.91513,10.51356,33.29612Zm-1.60106,0c0.145-3.89331,2.79063-7.16375,6.47287-9.3995A28.565,28.565,0,0,1,30,20.19763a28.565,28.565,0,0,1,14.61462,3.699c3.68225,2.23575,6.32788,5.50619,6.47287,9.3995h0.00625V35.5485c0,4.04175-2.691,7.43681-6.47913,9.73681A28.565,28.565,0,0,1,30,48.98438a28.565,28.565,0,0,1-14.61462-3.69906c-3.78813-2.3-6.47913-5.69506-6.47913-9.73681V33.29612H8.9125Z" fill="#606063"/><path d="M49.49419,35.54888c0,6.537-8.72787,11.83625-19.49419,11.83625S10.50575,42.08588,10.50575,35.54888V33.67512H49.49419v1.87375Z" fill="#bebebe"/><path d="M49.49419,33.63344c0,6.537-8.72787,11.83625-19.49419,11.83625S10.50575,40.17044,10.50575,33.63344,19.23362,21.79719,30,21.79719,49.49419,27.09644,49.49419,33.63344Z" fill="#faf9fa"/><path d="M13.50513,30.28969l-0.00006.02219a5.60876,5.60876,0,0,0,.2275,1.57737H13.50487v0.69313a5.56,5.56,0,0,0,.07444.90644c0.74319,4.5005,6.96094,8.01331,14.52119,8.01331s13.77794-3.51281,14.52113-8.01331a5.55342,5.55342,0,0,0,.07443-0.90644V31.88925H42.46875a5.61062,5.61062,0,0,0,.22731-1.53331l0.00019-.04406-0.00006-.02219c-0.01963-4.916-6.54675-8.8975-14.59557-8.8975S13.52475,25.37369,13.50513,30.28969Zm-1.59956,0H11.90537v2.29269c0,3.23125,2.13663,5.8975,5.04037,7.67206A21.68351,21.68351,0,0,0,28.1005,43.10169a21.68327,21.68327,0,0,0,11.15469-2.84725c2.90375-1.77456,5.04044-4.44081,5.04044-7.67206V30.36181l0.00012-.04994c0-3.23119-2.13663-5.8975-5.04037-7.67206a21.68413,21.68413,0,0,0-11.15475-2.84719,21.684,21.684,0,0,0-11.15469,2.84719C14.04881,24.41031,11.91537,27.06844,11.90556,30.28969Z" fill="#633001"/><path d="M42.69606,32.5825c0,4.92625-6.53469,8.91975-14.59562,8.91975s-14.59556-3.9935-14.59556-8.91975V30.48975H42.69606V32.5825Z" fill="#fedc90"/><path d="M42.69606,30.31194c0,4.92619-6.53469,8.91969-14.59562,8.91969s-14.59556-3.9935-14.59556-8.91969,6.53469-8.91975,14.59556-8.91975S42.69606,25.38569,42.69606,30.31194Z" fill="#d1884f"/><path d="M17.90381,25.49106v0.02225a5.608,5.608,0,0,0,.2275,1.57731H17.90362v0.69319a5.55184,5.55184,0,0,0,.07444.90637c0.74319,4.5005,6.96088,8.01331,14.52112,8.01331s13.778-3.51281,14.52119-8.01331a5.55845,5.55845,0,0,0,.07444-0.90637V27.09063H46.8675a5.61247,5.61247,0,0,0,.22731-1.53331l0.00019-.044-0.00006-.02225c-0.01962-4.916-6.54675-8.89744-14.59556-8.89744S17.92344,20.57506,17.90381,25.49106Zm-1.5995,0H16.30406v2.29275c0,3.23119,2.13669,5.8975,5.04044,7.67206a21.68389,21.68389,0,0,0,11.15469,2.84719,21.68411,21.68411,0,0,0,11.15475-2.84719c2.90375-1.77456,5.04037-4.44088,5.04037-7.67206V25.56325l0.00019-.04994c0-3.23119-2.13663-5.8975-5.04044-7.67206a21.68371,21.68371,0,0,0-11.15469-2.84719,21.68372,21.68372,0,0,0-11.15469,2.84719C18.44756,19.61175,16.31406,22.26988,16.30431,25.49106Z" fill="#633001"/><path d="M47.09475,27.78388c0,4.92619-6.53462,8.91969-14.59556,8.91969s-14.59556-3.9935-14.59556-8.91969V25.69106H47.09475v2.09281Z" fill="#fedc90"/><path d="M47.09475,25.51319c0,4.92619-6.53462,8.91969-14.59556,8.91969s-14.59556-3.9935-14.59556-8.91969,6.53463-8.91969,14.59556-8.91969S47.09475,20.58694,47.09475,25.51319Z" fill="#d1884f"/><path d="M13.50513,20.69237l-0.00006.02219a5.608,5.608,0,0,0,.2275,1.57731H13.50487v0.69319a5.5587,5.5587,0,0,0,.07444.90637c0.74319,4.5005,6.96094,8.01337,14.52119,8.01337s13.77794-3.51287,14.52113-8.01337a5.55208,5.55208,0,0,0,.07443-0.90637V22.29187H42.46875a5.6099,5.6099,0,0,0,.22731-1.53331l0.00019-.044-0.00006-.02219c-0.01963-4.916-6.54675-8.8975-14.59557-8.8975S13.52475,15.77638,13.50513,20.69237Zm-1.59956,0H11.90537v2.29269c0,3.23125,2.13663,5.8975,5.04037,7.67206A21.68352,21.68352,0,0,0,28.1005,33.50431a21.68328,21.68328,0,0,0,11.15469-2.84719c2.90375-1.77456,5.04044-4.44081,5.04044-7.67206V20.7645l0.00012-.04994c0-3.23119-2.13663-5.8975-5.04037-7.67206a21.68413,21.68413,0,0,0-11.15475-2.84719A21.684,21.684,0,0,0,16.94594,13.0425C14.04881,14.813,11.91537,17.47113,11.90556,20.69237Z" fill="#633001"/><path d="M42.69606,22.98512c0,4.92619-6.53469,8.91969-14.59562,8.91969s-14.59556-3.9935-14.59556-8.91969V20.89231H42.69606v2.09281Z" fill="#fedc90"/><path d="M42.69606,20.71462c0,4.92619-6.53469,8.91969-14.59562,8.91969s-14.59556-3.9935-14.59556-8.91969,6.53469-8.91975,14.59556-8.91975S42.69606,15.78838,42.69606,20.71462Z" fill="#d1884f"/><path d="M16.95744,21.26962c0,1.64469,1.19506,3.11769,3.08044,4.10881L18.73163,27.641l0.00025,0.00012H18.73163v5.72619a1.371,1.371,0,1,0,2.742,0V28.81337L22.879,26.37913a13.85453,13.85453,0,0,0,2.86719.29406c4.85387,0,8.78875-2.41925,8.78875-5.40356s-3.93488-5.40356-8.78875-5.40356S16.95744,18.28531,16.95744,21.26962Z" fill="url(#linear-gradient-2)"/><path d="M20.03781,25.37831q-0.31322-.16463-0.60044-0.34662a4.63416,4.63416,0,0,1-2.48-3.76213c0-2.98431,3.93488-5.40356,8.78875-5.40356s8.78875,2.41925,8.78875,5.40356S30.6,26.67312,25.74613,26.67312a13.85364,13.85364,0,0,1-2.86713-.29406l-1.40537,2.43419v4.554a1.371,1.371,0,0,1-2.74206,0V27.64106ZM17.332,27.66512v5.70213a2.77059,2.77059,0,1,0,5.54119,0V29.18831l0.72894-1.26256a15.54417,15.54417,0,0,0,2.144.147,13.4341,13.4341,0,0,0,6.94762-1.79,6.06264,6.06264,0,0,0,3.24069-5.01319,6.06264,6.06264,0,0,0-3.24069-5.01319,13.43411,13.43411,0,0,0-6.94762-1.79,13.43371,13.43371,0,0,0-6.94756,1.79,6.06257,6.06257,0,0,0-3.24075,5.01319,5.75587,5.75587,0,0,0,2.5945,4.5755l-0.62319,1.07931A1.39538,1.39538,0,0,0,17.332,27.66512Z" fill="#633001"/><path d="M19.70306,18.99294c0,1.54594,1.96937,2.79919,4.39869,2.79919s4.39869-1.25325,4.39869-2.79919-1.96938-2.79925-4.39869-2.79925S19.70306,17.44694,19.70306,18.99294Z" fill="#9e7200"/><path d="M19.70306,17.79325h8.79737v1.19969H19.70306V17.79325Z" fill="#9e7200"/><path d="M19.70306,17.79325c0,1.546,1.96937,2.79925,4.39869,2.79925s4.39869-1.25325,4.39869-2.79925-1.96938-2.79919-4.39869-2.79919S19.70306,16.24731,19.70306,17.79325Z" fill="#f0b90b"/><path d="M22.43256,17.45581l1.23987-.789a0.79962,0.79962,0,0,1,.85875,0l1.23981,0.789a0.39983,0.39983,0,0,1,0,.67469l-1.23981.789a0.79962,0.79962,0,0,1-.85875,0l-1.23987-.789A0.39989,0.39989,0,0,1,22.43256,17.45581Z" fill="#9e7200"/><path d="M20.24,14.63306a7.69816,7.69816,0,0,1,7.7235,0A3.8166,3.8166,0,0,1,29.9,17.79319v1.19969A3.8166,3.8166,0,0,1,27.9635,22.153a7.69817,7.69817,0,0,1-7.7235,0,3.81666,3.81666,0,0,1-1.93656-3.16013V17.79319A3.81666,3.81666,0,0,1,20.24,14.63306ZM24.10175,14.994c-2.42938,0-4.39869,1.25325-4.39869,2.79919v1.19969c0,1.54594,1.96931,2.79925,4.39869,2.79925s4.39869-1.25331,4.39869-2.79925V17.79319C28.50044,16.24725,26.53106,14.994,24.10175,14.994Z" fill="#633001"/></svg>