<?xml version="1.0" encoding="utf-8"?>
<!-- Generator: Adobe Illustrator 16.0.0, SVG Export Plug-In . SVG Version: 6.00 Build 0)  -->
<!DOCTYPE svg PUBLIC "-//W3C//DTD SVG 1.1//EN" "http://www.w3.org/Graphics/SVG/1.1/DTD/svg11.dtd">
<svg version="1.1" id="Layer_1" xmlns="http://www.w3.org/2000/svg" xmlns:xlink="http://www.w3.org/1999/xlink" x="0px" y="0px"
	 width="1080px" height="1080px" viewBox="0 0 1080 1080" enable-background="new 0 0 1080 1080" xml:space="preserve">
<circle fill="#102E5D" cx="540" cy="540" r="538.987"/>
<g>
	
		<linearGradient id="SVGID_1_" gradientUnits="userSpaceOnUse" x1="222.7114" y1="277.6997" x2="622.7817" y2="677.7701" gradientTransform="matrix(1 0 0 -1 234 1226)">
		<stop  offset="0.0061" style="stop-color:#2386EB"/>
		<stop  offset="0.5102" style="stop-color:#207DDB"/>
		<stop  offset="1" style="stop-color:#2387EC"/>
	</linearGradient>
	<path fill="url(#SVGID_1_)" d="M632.33,869.764c68.054-15.067,117.07-55.08,144.892-119.191
		c19.746-45.514,29.45-93.83,32.564-143.171c2.01-31.839,1.3-63.849,1.603-95.787c0.02-2.248,0.16-8.444-0.744-10.697
		c-2.207,1.032-6.617,5.578-8.406,7.101c-10.171,8.646-20.175,17.491-30.205,26.306
		C645.315,645.683,518.603,757.042,391.935,868.448c-2.187,1.92-3.816,4.474-7.442,8.805c5.904,0.356,8.447,0.639,10.99,0.639
		c55.087,0.026,110.19,0.775,165.255-0.337C584.673,877.073,609.011,874.927,632.33,869.764z"/>
	<path fill="#FFFFFF" d="M269.84,874.227c6.312-0.533,13.673-2.675,18.325-6.675c43.92-37.757,87.411-76.014,130.921-114.253
		c52.58-46.205,105.039-92.544,157.584-138.793c51.559-45.384,103.14-90.75,154.752-136.075
		c46.961-41.233,93.984-82.389,140.95-123.608l23.438-20.082c-24.497,6.591-66.333,16.482-90.915,22.735
		c-16.655,4.234-16.818,3.775-23.377-12.565c-19.771-49.259-55.156-84.396-100.36-110.507
		c-38.083-21.992-79.837-31.515-123.196-31.919c-48.029-0.449-96.048-0.646-144.082-0.646c-48.422,0-96.855,0.201-145.275,0.546
		c-31.368,0.223-56.188,14.888-72.269,42.358c-9.458,16.161-11.697,34.618-11.75,52.697c-0.475,159.669-0.467,319.342-0.28,479.013
		c0.017,14.502,1.218,29.187,3.74,43.455c3.2,18.098,13.515,32.313,29.543,41.607C233.667,870.837,251.203,875.798,269.84,874.227z
		 M305.593,360.993c0.025-8.778,0.46-17.578,1.188-26.328c1.923-23.166,12.734-34.541,35.764-37.642
		c6.112-0.825,12.33-1.149,18.503-1.168c43.647-0.121,87.316-0.897,130.938,0.12c34.228,0.794,68.03,5.738,99.561,20.486
		c37.653,17.61,62.543,46.63,76.293,85.626c2.138,6.061,0.188,9.78-4.819,13.146c-31.326,21.052-62.552,42.254-93.822,63.387
		c-50.941,34.43-101.875,68.865-152.84,103.251c-32.348,21.822-64.708,43.623-97.208,65.222c-2.688,1.787-8.411,3.6-9.368,2.493
		c-2.435-2.81-4.066-7.263-4.085-11.071c-0.254-49.182-0.17-98.37-0.164-147.554C305.54,447.638,305.476,404.316,305.593,360.993z"
		/>
</g>
<g>
	<g id="token">
		<path d="M1065.939,806.462c0,73.817-31.539,140.273-81.88,186.612c-97.063,89.324-246.399,89.319-343.462-0.012
			c-50.333-46.342-81.865-112.788-81.865-186.602c0-140.062,113.543-253.603,253.604-253.603S1065.939,666.4,1065.939,806.462z"/>
		<polygon fill="#8BE1EA" points="891.33,941.263 883.898,908.375 836.47,882.305 803.172,822.99 759.47,839.619 726.034,819.896 
			697.166,858.473 642.839,874.896 690.32,851.238 701.28,798.008 767.001,797.402 772.656,774.171 754.635,740.039 
			762.547,691.253 703.28,618.318 778.729,682.169 781.564,735.977 811.799,769.814 875.264,727.736 948.27,719.412 889.753,737.85 
			840.273,803.645 860.232,862.924 905.112,886.408 898.123,938.941 921.404,961.793 		"/>
		<path fill="#44C4E2" d="M727.316,642.836l48.301,40.878l2.702,51.31l0.116,2.24l1.496,1.676l27.647,30.94l3.68,4.118l4.604-3.051
			l60.522-40.129l39.276-4.479l-25.896,8.16l-1.95,0.613l-1.229,1.637l-47.854,63.635l-2.02,2.687l1.072,3.185l19.012,56.473
			l0.817,2.428l2.271,1.19l41.768,21.854l-6.484,48.74l-0.376,2.823l-0.627-0.429l-6.842-30.264l-0.633-2.801l-2.517-1.384
			l-45.371-24.938l-31.508-56.121l-2.69-4.797l-5.141,1.956l-39.698,15.105L730.114,818.6l-4.923-2.904l-3.429,4.575l-26.523,35.449
			l-17.207,5.202l12.317-6.139l2.779-1.384l0.626-3.04l10.126-49.188l60.663-0.561l4.965-0.046l1.175-4.824l4.785-19.644
			l0.571-2.351l-1.129-2.138l-16.959-32.116l7.513-46.318l0.457-2.826l-1.804-2.222L727.316,642.836 M679.245,593.797l79.925,98.356
			l-7.854,48.432l17.957,34.005l-4.784,19.646l-65.814,0.605l-11.165,54.235l-79.861,39.793l91.445-27.647l27.782-37.126
			l32.295,19.052l42.565-16.196l32.398,57.71l46.968,25.817l7.395,32.712l60.799,41.505l-47.802-46.913l7.074-53.166l-45.724-23.925
			l-19.014-56.473l47.856-63.634l89.186-28.101l-106.732,12.169l-61.804,40.977l-27.646-30.941l-2.849-54.063L679.245,593.797
			L679.245,593.797z"/>
		<polygon fill="#197A91" points="679.245,593.797 698.029,629.242 745.171,692.508 740.674,739.557 569.366,722.99 615.09,631.751 
					"/>
		<polygon opacity="0.48" fill="#197A91" enable-background="new    " points="790.854,666.158 835.198,631.751 842.643,585.822 
			871.379,712.484 812.337,740.585 794.26,722.99 		"/>
		<polygon fill="#197A91" points="842.643,552.859 842.643,585.822 835.198,631.751 790.854,666.158 708.309,604.253 
			679.245,593.797 754.386,546.479 		"/>
		<polygon opacity="0.39" fill="#197A91" enable-background="new    " points="842.643,552.859 842.643,585.822 871.379,712.484 
			996.824,712.484 1014.958,653.932 944.912,568.659 		"/>
		<polygon opacity="0.35" fill="#197A91" enable-background="new    " points="869.266,798.604 986.189,818.689 996.824,712.484 
			980.874,712.484 898.29,746.029 		"/>
		<polygon opacity="0.86" fill="#197A91" enable-background="new    " points="690.586,780.941 569.366,722.99 740.674,739.557 
			745.171,767.65 742.689,774.59 		"/>
		<polygon opacity="0.21" fill="#197A91" enable-background="new    " points="1014.958,653.932 1065.939,740.585 1065.939,849.526 
			1051.053,895.249 986.189,818.689 996.824,712.484 		"/>
		<polygon fill="#197A91" points="690.586,780.941 569.366,722.99 552.354,801.678 569.366,901.629 607.646,888.869 
			639.547,794.234 		"/>
		<polygon opacity="0.63" fill="#197A91" enable-background="new    " points="678.359,842.615 690.586,780.941 639.547,794.234 
			607.646,888.869 		"/>
		<polygon opacity="0.45" fill="#197A91" enable-background="new    " points="894.745,856.969 881.104,843.193 862.845,812.311 
			862.845,812.311 986.189,818.689 961.732,880.362 955.354,920.77 944.72,937.783 949.297,984.694 910.164,933.529 
			916.544,878.768 		"/>
		<polygon opacity="0.34" fill="#197A91" enable-background="new    " points="881.104,945.025 783.677,969.189 732.64,926.126 
			831.117,901.629 871.379,914.922 		"/>
		<polygon opacity="0.56" fill="#197A91" enable-background="new    " points="787.349,859.628 755.53,854.536 732.64,926.126 
			831.117,901.629 		"/>
		<polygon opacity="0.65" fill="#197A91" enable-background="new    " points="727.311,843.193 704.839,872.338 732.64,926.126 
			755.53,854.536 		"/>
		<path opacity="0.67" fill="#197A91" enable-background="new    " d="M569.366,901.629c0,0,79.161,100.799,79.751,98.932
			c0.588-1.864,26.902-64.065,26.902-64.065l56.619-10.367l-27.801-53.789l-97.191,16.531L569.366,901.629z"/>
		<polygon opacity="0.25" fill="#197A91" enable-background="new    " points="732.64,1048.138 679.21,1032.985 649.117,1000.563 
			676.021,936.494 732.64,926.126 783.677,969.189 		"/>
		<path fill="#279DC1" d="M784.441,676.875c-0.11,0.366-0.188,0.568-0.188,0.568s1.914-6.108,3.98-5.937
			c0.94,0.078,1.485,4.109,2.646,5.937c0.06-10.943-14.309-19.858-14.309-19.858l8.116,8.574
			C786.816,669.47,785.848,672.29,784.441,676.875z"/>
		<path fill="#279DC1" d="M708.309,604.253c0,0,68.502,49.078,75.945,53.331c7.443,4.254,10.893-0.873,18.336-5.482
			c7.443-4.606,26.928-18.297,28.527-22.263c1.6-3.965,6.563-32.675,9.043-44.017c2.48-11.344,2.836-27.647,2.836-27.647
			s2.836,32.254,3.898,35.622c1.063,3.367,13.304,69.406,13.304,69.406s-12.595-44.772-15.075-53.634
			c-2.48-8.86-3.898,3.898-5.672,12.052c-1.771,8.152-2.48,8.861-2.48,8.861s-1.948,4.431-4.254,6.379
			c-5.255,4.445-30.836,21.138-35.798,26.342c-4.964,5.202-2.837,15.836-2.659,26.116c0.178,10.276-0.423,26.022-0.423,26.022
			s0.423-39.49-7.551-48.667C775.544,654.32,708.309,604.253,708.309,604.253z"/>
		<path fill="#197A91" d="M898.468,712.484c-14.887,0-20.946,0.402-27.089,2.797c-6.141,2.393-57.979,24.79-57.979,24.79
			s52.104-25.854,53.167-32.5c1.063-6.646-0.326-17.736-0.326-17.736s4.313,12.687,9.364,15.876
			C880.656,708.899,898.468,712.484,898.468,712.484z"/>
		<path fill="#279DC1" d="M588.269,724.819c34.089,5.437,140.065,16.248,145.913,20.233c5.851,3.988,10.013,16.498,10.013,16.498
			s-2.567-15.798-2.036-21.995c0.532-6.197,3.189-43.682,4.786-45.275c1.096-0.986,2.511-1.553,3.984-1.594
			c0,0-3.866-0.604-6.645-2.851s-46.255-60.595-46.255-60.595s40.937,56.266,42.531,63.179c1.597,6.91-1.078,39.516-7.922,43.064
			C724.79,739.557,588.269,724.819,588.269,724.819z"/>
		<path fill="#105A66" d="M793.749,714.49c-0.287,4.381-5.07,15.278-5.07,15.278s3.722-5.581,5.581-4.651
			c1.861,0.93,16.615,12.76,16.881,16.879c0.267,4.122,1.196,15.152,1.196,15.152s0.467-14.555,2.327-16.279
			c1.857-1.729,16.114-9.063,16.114-9.063s-15.118,7.333-17.378,6.669c-2.739-0.806-18.276-13.891-18.674-16.018
			C794.326,720.332,793.749,714.49,793.749,714.49z"/>
		<path fill="#279DC1" d="M911.693,740.585c-13.403,5.444-16.948,2.963-16.948,2.963c1.243,2.668,1.243,5.75,0,8.418
			c-2.129,4.341-23.685,43.59-26.849,46.122c-2.658,2.127-11.963,6.07-11.963,6.07c6.354-1.397,12.816-2.228,19.316-2.482
			c10.102-0.311,97.906,14.774,97.906,14.774s-93.935-17.195-95.825-20.224c-3.321-5.316,10.324-24.678,14.578-32.829
			c4.253-8.152,5.701-13.115,9.584-16.306C905.379,743.902,911.693,740.585,911.693,740.585z"/>
		<path fill="#279DC1" d="M617.315,745.913c22.23,12.433,71.587,32.637,68.132,35.028c-3.457,2.393-39.166,12.052-48.027,11.963
			c-3.201-0.031-19.354,65.057-21.932,72.703c-2.578,7.646-7.044,19.273-9.969,20.869c-2.924,1.595-24.029,11.111-24.029,11.111
			s23.787-8.315,26.156-8.72s7.71-19.141,9.837-24.457s20.469-63.533,24.189-66.723c3.722-3.19,23.926-9.306,31.104-10.635
			c7.178-1.328,14.354-2.924,15.683-0.266s-5.849,20.51-7.176,29.66c-1.329,9.151-2.127,21.646-4.254,24.305
			c-2.128,2.658-39.635,28.655-39.635,28.655s38.838-24.846,40.965-24.757s5.58,2.48,5.58,2.48s-4.254-3.811-4.518-5.139
			c-0.267-1.33,11.163-54.142,12.227-55.472c1.063-1.329,4.784,4.52,4.784,4.52s-3.012-5.76-2.037-7.354
			c0.978-1.595,24.812-5.229,33.053-6.113c8.241-0.887,14.088-0.443,16.568,0.709c2.482,1.151,15.063,10.962,15.063,10.962
			s-11.874-11.938-12.138-13.976c-0.267-2.038-0.443-5.229,1.326-5.405c1.772-0.178,13.471,2.479,13.471,2.479
			s-12.672-3.188-14.267-5.228c-1.595-2.037-3.617-7.761-3.658-8.033c-0.039-0.273,0.201,2.186,0.291,5.729
			c0.088,3.545,0.619,8.684-1.33,8.948c-1.947,0.268-42.354,7.089-49.621,5.671C685.887,778.013,617.315,745.913,617.315,745.913z"
			/>
		<path fill="#279DC1" d="M726.916,832.514c0,0,0.354,7.004-1.594,10.681c-1.95,3.676-14.888,20.865-16.482,22.461
			c-1.595,1.595-3.722,2.127-6.38,0c0.887,4.075,0.532,4.784-2.304,5.672c-2.834,0.886-83.549,16.02-83.549,16.02
			s77.878-12.831,81.952-12.831c4.076,0,6.381,1.24,8.508,4.784c2.127,3.545,8.804,14.385,8.804,14.385s-7.208-15.979-7.74-19.347
			c-0.531-3.367,16.142-27.555,18.811-28.887c2.669-1.334,6.354,1.24,10.078,2.836c3.72,1.595,13.112,4.35,15.239,7.09
			c2.126,2.736-10.275,41.526-10.275,41.526s12.401-37.983,14.528-39.401c2.126-1.418,27.291,0.709,30.128,3.368
			c2.836,2.659,23.5,20.631,23.5,20.631s-18.007-20.631-19.069-22.934c-1.063-2.306,6.38-23.66,6.38-23.66
			s-7.267,19.229-11.164,20.646c-3.898,1.416-27.47-0.709-28.534-1.949c-1.063-1.24,0.709-6.733,0.709-6.733
			s-2.303,4.606-3.721,4.784s-22.883-7.62-24.558-9.214C728.51,840.844,726.916,832.514,726.916,832.514z"/>
		<path fill="#1C6975" d="M717.534,896.902c2.521,4.873,9.382,22.095,10.446,24.931c1.063,2.834-11.239,7.206-17.243,8.307
			c-6.002,1.1,18.765-3.167,21.902-1.395c3.137,1.77,13.511,8.782,13.511,8.782s-8.068-8.429-7.006-10.2
			c1.063-1.771,45.973-14.253,45.973-14.253s-43.183,9.911-47.08,9.557c-3.9-0.354,7.758-37.158,7.758-37.158
			s-11.966,34.588-14.271,36.006C729.221,922.896,717.534,896.902,717.534,896.902z"/>
		<path fill="#279DC1" d="M862.845,812.311c0,0,16.482,27.916,16.128,30.884c-0.354,2.967-9.707,13.243-9.707,13.243
			s9.717-10.276,11.838-9.392c2.122,0.886,8.502,6.912,12.047,10.101c3.544,3.191,19.14,19.317,19.493,21.09
			c0.354,1.772-2.127,5.316-2.127,5.316s2.127-1.771,3.19-1.418c1.063,0.354-0.354,18.255-1.418,26.229
			c-1.063,7.977-1.95,22.151-3.545,24.28c-1.594,2.128-4.252,4.885-4.252,4.885s3.543-3.604,5.138-2.118
			c1.596,1.484,8.586,8.65,8.586,8.65s-6.459-8.403-6.813-11.595c-0.354-3.19,4.963-49.444,5.672-51.217s1.319-2.659-2.53-5.495
			c-3.851-2.835-29.191-27.777-31.853-32.563C880.033,838.406,862.845,812.311,862.845,812.311z"/>
		<path fill="#17768C" d="M705.929,931.019c-4.975,0.582-17.868,2.245-20.592,2.577c-2.727,0.332-11.564-0.198-12.495-0.332
			c-0.932-0.131-0.333,3.39-0.467,5.053c-0.132,1.66-21.756,58.671-21.756,58.671s21.451-51.115,22.223-53.09
			c0.858-2.194,1.528-5.495,3.988-6.369C679.287,936.652,705.929,931.019,705.929,931.019z"/>
		<path fill="#44C4E2" d="M812.337,555.518c138.523-0.146,250.94,112.03,251.085,250.556
			c0.057,52.813-16.558,104.294-47.477,147.106c-9.931,13.745-21.217,26.456-33.691,37.943
			c-96.046,88.384-243.813,88.377-339.851-0.014c-25.095-23.085-45.232-51.031-59.194-82.141
			c-56.657-126.436-0.091-274.861,126.344-331.518C741.882,562.964,776.91,555.49,812.337,555.518 M812.337,534.25
			c-150.34,0-272.211,121.872-272.211,272.212c0,79.229,33.845,150.552,87.873,200.293c104.181,95.888,264.475,95.892,368.662,0.011
			c54.032-49.735,87.889-121.069,87.889-200.304C1084.549,656.122,962.677,534.25,812.337,534.25L812.337,534.25z"/>
	</g>
	<g id="glow">
		<g>
			
				<image overflow="visible" enable-background="new    " width="774" height="808" xlink:href="91AC988C.png"  transform="matrix(0.5317 0 0 0.5317 588.5059 574.6563)">
			</image>
		</g>
	</g>
</g>
</svg>
