<?xml version="1.0" encoding="utf-8"?>
<!-- Generator: Adobe Illustrator 16.0.0, SVG Export Plug-In . SVG Version: 6.00 Build 0)  -->
<!DOCTYPE svg PUBLIC "-//W3C//DTD SVG 1.1//EN" "http://www.w3.org/Graphics/SVG/1.1/DTD/svg11.dtd">
<svg version="1.1" id="Layer_1" xmlns="http://www.w3.org/2000/svg" xmlns:xlink="http://www.w3.org/1999/xlink" x="0px" y="0px"
	 width="1080px" height="1080px" viewBox="0 0 1080 1080" enable-background="new 0 0 1080 1080" xml:space="preserve">
<g>
	<g>
		<g id="b">
			
				<linearGradient id="SVGID_1_" gradientUnits="userSpaceOnUse" x1="-596.5796" y1="180.1763" x2="-597.3236" y2="180.8022" gradientTransform="matrix(1047.6 0 0 1047.6 625907.5 -188540.5)">
				<stop  offset="0" style="stop-color:#B6509E"/>
				<stop  offset="1" style="stop-color:#2EBAC6"/>
			</linearGradient>
			<circle fill="url(#SVGID_1_)" cx="540" cy="540" r="523.8"/>
			<path fill="#FFFFFF" d="M769.23,748.71L592.11,320.49c-9.99-22.14-24.841-32.94-44.415-32.94h-15.66
				c-19.575,0-34.425,10.8-44.415,32.94L410.535,507.06h-58.32c-17.415,0.136-31.59,14.176-31.725,31.726v0.404
				c0.135,17.416,14.31,31.591,31.725,31.726h31.32L309.96,748.71c-1.35,3.915-2.16,7.965-2.16,12.15
				c0,9.989,3.105,17.819,8.641,23.895c5.534,6.075,13.5,9.045,23.489,9.045c6.615-0.135,12.96-2.16,18.226-6.075
				c5.67-3.915,9.585-9.585,12.689-16.064l81-200.88h56.16c17.415-0.136,31.59-14.175,31.726-31.726v-0.81
				c-0.136-17.415-14.311-31.59-31.726-31.726h-29.97l61.83-154.035l168.479,419.041c3.105,6.479,7.021,12.149,12.69,16.064
				c5.265,3.915,11.745,5.94,18.225,6.075c9.99,0,17.82-2.97,23.49-9.045s8.64-13.905,8.64-23.896
				C771.525,756.675,770.85,752.49,769.23,748.71z"/>
		</g>
	</g>
</g>
<g>
	<g opacity="0.4" enable-background="new    ">
		
			<image overflow="visible" enable-background="new    " width="2521" height="2521" xlink:href="C23E53DD.png"  transform="matrix(0.2385 0 0 0.2385 491.7383 521.7588)">
		</image>
	</g>
	<circle fill="#1969FF" cx="811.979" cy="804.973" r="268.021"/>
	<g id="fantom-new-logo_3_" transform="translate(6.000000, 8.000000)">
		<g id="rounded-copy_3_">
			<g id="Rectangle_7_">
				<path fill="#FFFFFF" d="M802.902,743.392c-6.039,0-11.877-1.326-16.438-3.736l-85.666-45.261
					c-6.541-3.456-10.297-9.011-10.297-15.234c0.002-6.227,3.758-11.774,10.301-15.232l85.663-45.261
					c9.128-4.82,23.749-4.818,32.87,0l85.669,45.266c6.539,3.453,10.291,9.003,10.296,15.229c0,6.226-3.754,11.778-10.296,15.236
					l-85.669,45.259C814.778,742.063,808.939,743.392,802.902,743.392z M715.965,679.164l80.104,42.318
					c3.216,1.694,10.462,1.699,13.659,0.002l80.111-42.32l-80.106-42.324c-3.212-1.695-10.448-1.695-13.666,0L715.965,679.164z"/>
			</g>
			<g id="Rectangle-Copy_3_">
				<path fill="#FFFFFF" d="M802.902,853.834c-6.039,0-11.877-1.328-16.438-3.736L700.8,804.839
					c-6.541-3.46-10.297-9.008-10.297-15.229c0-6.224,3.756-11.776,10.297-15.233l85.667-45.263c9.128-4.816,23.749-4.816,32.87,0
					l85.669,45.263c6.542,3.457,10.296,9.011,10.296,15.233c0,6.222-3.754,11.771-10.296,15.229l-85.669,45.259
					C814.778,852.506,808.939,853.834,802.902,853.834z M715.965,789.608l80.104,42.313c3.216,1.702,10.462,1.697,13.659,0.003
					l80.111-42.316l-80.106-42.323c-3.212-1.694-10.448-1.699-13.666,0.004L715.965,789.608z"/>
			</g>
			<g id="Rectangle_6_">
			</g>
			<defs>
				<filter id="Adobe_OpacityMaskFilter" filterUnits="userSpaceOnUse" x="690.503" y="841.019" width="224.799" height="128.344">
					<feColorMatrix  type="matrix" values="1 0 0 0 0  0 1 0 0 0  0 0 1 0 0  0 0 0 1 0"/>
				</filter>
			</defs>
			<mask maskUnits="userSpaceOnUse" x="690.503" y="841.019" width="224.799" height="128.344" id="mask-2_1_">
				<g filter="url(#Adobe_OpacityMaskFilter)">
					<rect id="path-1_1_" x="687.494" y="905.765" fill="#FFFFFF" width="234.31" height="64.744"/>
				</g>
			</mask>
			<g id="Rectangle-Copy-2_3_" mask="url(#mask-2_1_)">
				<path fill="#FFFFFF" d="M802.902,969.362c-6.039,0-11.877-1.328-16.438-3.739L700.8,920.368
					c-6.55-3.459-10.301-9.019-10.297-15.245c0.002-6.224,3.761-11.776,10.304-15.229l85.66-45.262
					c9.121-4.821,23.758-4.815,32.873,0.004l85.666,45.266c6.534,3.443,10.291,8.995,10.296,15.222
					c0.005,6.229-3.748,11.786-10.296,15.24l-85.669,45.263C814.778,968.034,808.939,969.362,802.902,969.362z M715.965,905.133
					l80.104,42.315c3.216,1.707,10.462,1.703,13.659,0.005l80.111-42.32l-80.106-42.325c-3.212-1.702-10.452-1.702-13.664,0
					L715.965,905.133z"/>
			</g>
			<g id="Path-11_3_">
				<path fill="#FFFFFF" d="M950.491,679.352h-20.554c0-18.477-3.438-20.545-17.902-29.257l-2.167-1.309l10.646-17.586l2.126,1.285
					C940.429,643.196,950.491,650.656,950.491,679.352z"/>
			</g>
			<g id="Path-11-Copy_3_">
				<path fill="#FFFFFF" d="M683.667,949.28l-2.133-1.288c-17.778-10.71-27.838-18.166-27.838-46.862h20.553
					c0,18.479,3.437,20.547,17.892,29.258l2.172,1.312L683.667,949.28z"/>
			</g>
			<g id="Line-2_3_">
				<rect x="689.872" y="670.071" fill="#FFFFFF" width="20.554" height="244.064"/>
			</g>
			<g id="Line-2-Copy_3_">
				<rect x="895.384" y="670.071" fill="#FFFFFF" width="20.552" height="244.064"/>
			</g>
			<g id="Line-2-Copy-2_3_">
				<rect x="792.625" y="726.014" fill="#FFFFFF" width="20.552" height="124.646"/>
			</g>
		</g>
	</g>
</g>
</svg>
