<?xml version="1.0" encoding="utf-8"?>
<!-- Generator: Adobe Illustrator 16.0.0, SVG Export Plug-In . SVG Version: 6.00 Build 0)  -->
<!DOCTYPE svg PUBLIC "-//W3C//DTD SVG 1.1//EN" "http://www.w3.org/Graphics/SVG/1.1/DTD/svg11.dtd">
<svg version="1.1" id="Layer_1" xmlns="http://www.w3.org/2000/svg" xmlns:xlink="http://www.w3.org/1999/xlink" x="0px" y="0px"
	 width="1080px" height="1080px" viewBox="0 0 1080 1080" enable-background="new 0 0 1080 1080" xml:space="preserve">
<linearGradient id="SVGID_1_" gradientUnits="userSpaceOnUse" x1="214.9673" y1="799.6377" x2="1047.6531" y2="143.6439">
	<stop  offset="0" style="stop-color:#6E58DF"/>
	<stop  offset="1" style="stop-color:#469BF4"/>
</linearGradient>
<circle fill="url(#SVGID_1_)" cx="542" cy="542" r="530"/>
<g>
	<polygon fill="#FFFFFF" points="649.465,735.435 674.583,586.337 797.787,706.877 	"/>
	<polygon fill="#FFFFFF" points="428.88,346.873 403.762,495.974 280.558,375.433 	"/>
	<path fill="none" stroke="#FFFFFF" stroke-width="55.44" stroke-linecap="round" stroke-miterlimit="10" d="M346.184,431.889
		l-91.005,91.005c0,0-44.8,75.916,11.202,131.917c56.005,56.002,119.473,31.113,138.139,12.444
		c18.668-18.665,252.015-252.011,252.015-252.011s83.382-69.692,151.207-1.867s29.87,126.937,9.956,146.851
		c-19.91,19.913-102.671,102.671-102.671,102.671"/>
</g>
<g>
	<g opacity="0.4" enable-background="new    ">
		
			<image overflow="visible" enable-background="new    " width="2513" height="2513" xlink:href="7012962D.png"  transform="matrix(0.2393 0 0 0.2393 491.7383 521.7588)">
		</image>
	</g>
	<circle fill="#1969FF" cx="811.979" cy="804.973" r="268.021"/>
	<g id="fantom-new-logo_3_" transform="translate(6.000000, 8.000000)">
		<g id="rounded-copy_3_">
			<g id="Rectangle_7_">
				<path fill="#FFFFFF" d="M802.902,743.392c-6.039,0-11.877-1.327-16.437-3.737l-85.666-45.26
					c-6.541-3.457-10.297-9.011-10.297-15.235c0.002-6.226,3.758-11.774,10.301-15.232l85.663-45.261
					c9.128-4.82,23.749-4.818,32.87,0l85.669,45.266c6.539,3.453,10.291,9.003,10.296,15.229c0,6.226-3.754,11.778-10.296,15.236
					l-85.669,45.259C814.778,742.063,808.939,743.392,802.902,743.392z M715.965,679.164l80.104,42.318
					c3.216,1.695,10.462,1.7,13.66,0.002l80.111-42.32l-80.107-42.324c-3.211-1.695-10.448-1.695-13.666,0L715.965,679.164z"/>
			</g>
			<g id="Rectangle-Copy_3_">
				<path fill="#FFFFFF" d="M802.902,853.834c-6.039,0-11.877-1.328-16.437-3.736L700.8,804.839
					c-6.541-3.46-10.297-9.008-10.297-15.229c0-6.223,3.756-11.776,10.297-15.233l85.667-45.263c9.128-4.816,23.749-4.816,32.87,0
					l85.669,45.263c6.542,3.457,10.296,9.011,10.296,15.233c0,6.222-3.754,11.771-10.296,15.229l-85.669,45.259
					C814.778,852.506,808.939,853.834,802.902,853.834z M715.965,789.608l80.104,42.314c3.216,1.702,10.462,1.697,13.66,0.003
					l80.111-42.317l-80.107-42.323c-3.211-1.694-10.448-1.699-13.666,0.004L715.965,789.608z"/>
			</g>
			<defs>
				<filter id="Adobe_OpacityMaskFilter" filterUnits="userSpaceOnUse" x="690.503" y="841.019" width="224.799" height="128.344">
					<feColorMatrix  type="matrix" values="1 0 0 0 0  0 1 0 0 0  0 0 1 0 0  0 0 0 1 0"/>
				</filter>
			</defs>
			<mask maskUnits="userSpaceOnUse" x="690.503" y="841.019" width="224.799" height="128.344" id="mask-2_1_">
				<g filter="url(#Adobe_OpacityMaskFilter)">
					<rect id="path-1_1_" x="687.494" y="905.765" fill="#FFFFFF" width="234.31" height="64.744"/>
				</g>
			</mask>
			<g id="Rectangle-Copy-2_3_" mask="url(#mask-2_1_)">
				<path fill="#FFFFFF" d="M802.902,969.362c-6.039,0-11.877-1.328-16.437-3.739L700.8,920.368
					c-6.55-3.459-10.301-9.018-10.297-15.245c0.002-6.224,3.761-11.776,10.304-15.229l85.66-45.262
					c9.121-4.821,23.758-4.816,32.873,0.004l85.666,45.265c6.534,3.444,10.291,8.995,10.296,15.222
					c0.005,6.229-3.748,11.786-10.296,15.24l-85.669,45.263C814.778,968.034,808.939,969.362,802.902,969.362z M715.965,905.133
					l80.104,42.315c3.216,1.707,10.462,1.703,13.66,0.005l80.111-42.32l-80.107-42.325c-3.211-1.702-10.452-1.702-13.664,0
					L715.965,905.133z"/>
			</g>
			<g id="Path-11_3_">
				<path fill="#FFFFFF" d="M950.491,679.352h-20.554c0-18.477-3.437-20.545-17.902-29.257l-2.167-1.309l10.646-17.586l2.126,1.285
					C940.429,643.196,950.491,650.656,950.491,679.352z"/>
			</g>
			<g id="Path-11-Copy_3_">
				<path fill="#FFFFFF" d="M683.667,949.28l-2.133-1.288c-17.778-10.71-27.838-18.166-27.838-46.862h20.553
					c0,18.479,3.437,20.547,17.892,29.258l2.172,1.311L683.667,949.28z"/>
			</g>
			<g id="Line-2_3_">
				<rect x="689.872" y="670.071" fill="#FFFFFF" width="20.554" height="244.065"/>
			</g>
			<g id="Line-2-Copy_3_">
				<rect x="895.384" y="670.071" fill="#FFFFFF" width="20.552" height="244.065"/>
			</g>
			<g id="Line-2-Copy-2_3_">
				<rect x="792.625" y="726.014" fill="#FFFFFF" width="20.552" height="124.646"/>
			</g>
		</g>
	</g>
</g>
</svg>
